/* XPM */
static char * hide_xpm[] = {
"20 15 5 1",
" 	c None",
".	c #000000",
"+	c #FFFF00",
"@	c #FFFFFF",
"#	c #808080",
"                    ",
"            ......  ",
"   ........         ",
"   .+@+@+@.   ####  ",
"   .@+@+@+.         ",
"   ........   ####  ",
"                    ",
"            ......  ",
"                    ",
"              ####  ",
"                    ",
"              ####  ",
"                    ",
"            ......  ",
"                    "};
