/* XPM */
static char * new_xpm[] = {
"20 15 6 1",
".	c None",
"+	c #808080",
"@	c #FFFFFF",
"#	c #FFFF00",
"$	c #000000",
"%	c #C0C0C0",
".....+@.............",
"..#..+#..+..........",
"..+#.+@.+#..........",
"...+#+#+#...........",
"..@#+#@++++$$$$$$...",
"..+++@+@#@#@#@#@$+..",
"...+@+#+#@##@#@#$+..",
"..+##+@#+#@@#@#@$+..",
"..@$@+#@#@##@#@#$+..",
"...$#@#@#@#@$$$$$+..",
"...$@#@#@#@#$#%$$+..",
"...$#@#@#@#@$%$@$+..",
"...$@#@#@#@#$$@#$+..",
"...$$$$$$$$$$$$$$+..",
"....++++++++++++++.."};
