/* XPM */
static char * bomb_xpm[] = {
"73 77 33 1",
" 	c None",
".	c #FFCECE",
"+	c #CECECE",
"@	c #CECE9C",
"#	c #CE9C9C",
"$	c #CE9C63",
"%	c #9C632C",
"&	c #63310C",
"*	c #9C3100",
"=	c #9C6363",
"-	c #9C9C63",
";	c #313131",
">	c #63632B",
",	c #636363",
"'	c #313100",
")	c #B59CCE",
"!	c #E7CEFF",
"~	c #310000",
"{	c #9C9C9C",
"]	c #000000",
"^	c #F16331",
"/	c #FFFFCE",
"(	c #FFCE9C",
"_	c #FF9C63",
":	c #9C639C",
"<	c #CEFFFF",
"[	c #FF9C31",
"}	c #FFFFFF",
"|	c #FFCE63",
"1	c #FF6300",
"2	c #FF9C00",
"3	c #630000",
"4	c #CE9C31",
"                                                                         ",
"                                                                         ",
"                                                                         ",
"                                                                         ",
"                                              .+@#@.+                    ",
"                                           .$%%%%&*%%=@.                 ",
"                                         .-%&&;>,,=,>%%%$                ",
"                                        #&';,)+     !+-%&=.              ",
"                                       -&~,+           +,*-.             ",
"                                      %&;{               {*%+            ",
"                                     %~;+                 -&$            ",
"                                    -~;+                   =%.           ",
"                                   +&]{                    +%^           ",
"                                   &]{                      $*@          ",
"                                  #~;/                      .^@          ",
"                                  &]{                        =$          ",
"                                 #];                         $%.         ",
"                                 ,],                         $*+         ",
"                                 ']+                         #%+         ",
"                        + +     )~;                          $=/         ",
"                       ,,{{,,,,{,],                         #%-          ",
"                      +;,{{,;;;]]],{                       .%%+          ",
"                      {;{{,,,;;];]]];{+                   +$%{           ",
"                      {;{{,,;;;]]]]]]];{                 #%%{            ",
"                      ;,{{,,;;];]]]]]]]]{              /$*%{             ",
"                     +;{{{,;;;;]]]]]]]]];             #=%>+              ",
"                     {;{{,,,;;]]]]]]]];]{           +-*>{+               ",
"                 +{,;],{{,,;;;]]]]]]]]]]+          #%>=@       /         ",
"               {,;]];];,{,,;;];]]]]]]]];          =&&{+        .         ",
"             {;;];;;;;];;;;;;]]]]]]]];],         =&,#          .         ",
"           +,;;;;;;;;;;;];;;;];]]]]]]]]{        =&-.           .         ",
"          {;;;;;,;;;;;;;;;];];]]]]]]]]]+       {>$             (         ",
"         {;;;,;,;,,;,;;;;;];]]]]]]]]]]]+       &=.             (         ",
"        {;;,;,,,,,,,;,;;;;;;];]]]]]]]]];+     {'#              (         ",
"       {;;;,,,,,,,,,,,;,;;;;];];]]]]]]]];+    {'@              _         ",
"      +;;,,,,,,{,{,,,,,;;;;;;];]]]]]]]]]];    -~#              _         ",
"     +;;;,,,,{{{{{{{,,,,,;;;;];]]]]]]]]]]],   :'#              _         ",
"     {;;,;,,{,{{{{{{,{,,;,;;;;];]]]]]]]]]]]+  {~-              _         ",
"    +;;;,,,,{{{{+{{{{,,,,;;;;];]];]]]]]]]]],  <;'#             [         ",
"    {;;;,,,{{{+++++{{{,,,,;;;;];]]]]]]]]]]]]+  {]&+            [(        ",
"   +;;;,,,,{{{++}+++{{,,,;;;;;;]]]]]]]]]]]]],   ,~>@        .( ^|   (    ",
"   {;;;;,,,,{{+}}}++{{,,,,;;;;];];]]]]]]]]]];    ,~&%#      /_ ^[ _(     ",
"   ,;;;;,,,{{{+++++{{{,,,;;;;;]]]]]]]]]]]]]]]{    {;~&%{@.   |^12[_      ",
"   ;];;,;,,{{{+++++{{{,,,,;;;;];]]]]]]]]]]]]],      {;~~3%=--4*12^       ",
"  {;;;;;,,,,{{{{{+{{{,,,,;;;;;];];]]]]]]]]]]];        {,,>&&***11_(      ",
"  {];;;;;,,,,{{{{{{{,,,,;;;;;];]]]]]]]]]]]]]];           !+{{$1121_      ",
"  ,];;;;;,,,,,,{{,{,,,,,;,;;;];]]]]]]]]]]]]]]]+              __1^21_.    ",
"  ,]];;;;;,,,,,,,,,,,,,;;;;;];]];]]]]]]]]]];]]+              _ [(.[      ",
"  ,];];;;;;;,,,,,,,,,,;;;;;;];]]]]]]]]]]]]]]]]+             (  [  _(     ",
"  ,]];;;;;;,;,,,,,,;,;;;;;;];]];]]]]]]]]]]];]]+                _   .     ",
"  ,]];];;;;;;;;;;;;,;;;;;;];];]]]]]]]]]]]]]]]]+                _         ",
"  ,]]];];;;;;;;;;;;;;;;;;];]]]]]]]]]]]]]]];]]]+                (         ",
"  {]];];];];;;;;;;;;;;;];];];]]]]]]]]]]]]]];];                 (         ",
"  +]]]]];];;;;;;;;;;;];];]]]]]]]]]]]]]]]];]]];                 .         ",
"  +;]];]];]];];];;];];];]];]]]]]]]]]]]]]]];]],                 .         ",
"   ,]]]]]];]];];];];];]];]]]]]]]]]]]]]]];]]]]+                           ",
"   {]]]];]]];]]];]]];]]]]]]]]]]]]]]]]]]]];]];                            ",
"   +;]]]]]]]]];]]];]]]];]]]]]]]]]]]]]]]];]]],       { {{{{{{{{{{{{{{ {   ",
"    ,]]]]]]]]]]]]]]]]]]]]]]]]]]]]]]]]]]]]]]]  { {{{{ {             {{{   ",
"    +;]]]]]]]]]]]]]]]]]]]]]]]]]]]]]]]]]]]]],{{{{                     {   ",
"     {]]]]]]]]]]]]]]]]]]]]]]]]]]]]]]]]]]]];{+{                     {{{   ",
"      ;]]]]]]]]]]]]]]]]]]]]]]]]]]]]]]]]]]],{{{{             { {{{{{{     ",
"      +;];]]]]]]]]]]]]]]]]]]]]]]]]]]]]]]];{,{{{+       {{{{{{            ",
"       +]]]]]]]]]]]]]]]]]]]]]]]]]]]]]]]];{,{,{{++   {{{{                 ",
"        {]];]]]]]]]]]]]]]]]]]]]]]]]]]]];,{{,{{,{{+{{{{{{{{ {             ",
"       ++{]]]]]]]]]]]]]]]]]]]]]]]]]]]];{{,{,{,{{{{{{    { {{{{{{{{{{     ",
"      +{{{,;]]]]]]]]]]]]]]]]]]]]]]]]],,{,{,{,{,{{{+                      ",
"     ++{{,{,,]]]]]]]]]]]]]]]]]]]]]];,{,{,{,{,{{{{+                       ",
"      ++{{{,{,;]]]]]]]]]]]]]]]]]];,,{,{,{,{{{{++                         ",
"       +++{{{{{,,]]]]]]]]]]]]]];,,{,{{{{{+++                             ",
"           ++++{{{{,,;;;];;;,,{{{+{++++                                  ",
"                     + + +                                               ",
"                                                                         ",
"                                                                         ",
"                                                                         ",
"                                                                         ",
"                                                                         "};
