/* XPM */
static char * warning_xpm[] = {
"68 68 64 1",
" 	c None",
".	c #FFFFFF",
"+	c #FFF5D7",
"@	c #E5E5E5",
"#	c #FFE1BA",
"$	c #FFD7A7",
"%	c #FFCC99",
"&	c #E6D1AF",
"*	c #FCC592",
"=	c #CCCCCC",
"-	c #FDBE8B",
";	c #C5C5C5",
">	c #FFB380",
",	c #BEBEBE",
"'	c #D0B699",
")	c #FFA672",
"!	c #CEB594",
"~	c #E9AC7C",
"{	c #FF9966",
"]	c #EF9C6C",
"^	c #AEAEAE",
"/	c #C6A77D",
"(	c #A6A6A6",
"_	c #B59A7B",
":	c #C79067",
"<	c #999999",
"[	c #C0835D",
"}	c #AF7C58",
"|	c #8B867B",
"1	c #94785C",
"2	c #7C7C7C",
"3	c #727272",
"4	c #946749",
"5	c #80644A",
"6	c #666666",
"7	c #805B42",
"8	c #725B43",
"9	c #565859",
"0	c #674B37",
"a	c #594D3F",
"b	c #FF0000",
"c	c #F10000",
"d	c #E10000",
"e	c #543B2A",
"f	c #3E3E3E",
"g	c #CC0000",
"h	c #C20000",
"i	c #572F23",
"j	c #B20000",
"k	c #A40000",
"l	c #332E29",
"m	c #990000",
"n	c #810000",
"o	c #730000",
"p	c #341B14",
"q	c #510C08",
"r	c #660000",
"s	c #1C1919",
"t	c #500000",
"u	c #3F0000",
"v	c #330000",
"w	c #1C0505",
"x	c #0D0909",
"y	c #000000",
"                                          ,fxl(                     ",
"                                          f1'8l                     ",
"                   ,<<<<<<<<<<<<<<<<<<<<<9[$+&s2^22,                ",
"                  ,fvtuuuuuuuuutttvyyuuuui>%##lyxe1f<               ",
"                  atcbbbbbbbbbbbchulxobbm4>%%$eww~#!l;              ",
"                 9ucbbbbbbbbbbbhrp/$!lddu}>%%$awi)*+5<              ",
"                9ucbbbbbbbbbbbgru7*$+<nmv[)*%%av0{-+_3              ",
"               avdbbbbbbbbbbbbkrv}>$+&vrv})*%%ev7{>#/6              ",
"              9vdbbbbbbbbbbbbbnrv}>%#&srv1)*%%eu7{>#_f ^^           ",
"             6vdbbbbbbbbbbbbbbnrw}>%##ltv5)-%%iu4{>#_yfls6          ",
"            3vdbbbbbbbbbbbbbbboow})*$#auu7{>%*pu4{>#1ou/'s|         ",
"           3wdbbbbbbbbbbbbbbbborv4)-%$5vu8{>%*pu4{>$8ui%#1f         ",
"          |wgbbbbbbbbbbbbbbbbborv7{-%$1vu8{)%*pu4{>%ew0%#&l;        ",
"         2xjbbbbbbbbbbbbbbbbbbnru0{-%%_vu8{)**pu4{>*lv8%##f;        ",
"        2whbbbbbbbbbbbbbbbbbbbmrte{-%%/vu7{{**pu4{-*pv}-$#a6        ",
"       |wgbbbbbbbbbbbbbbbbbbbbkrrp{-%%*pu5{)**iv4)-%iv[)$#8w6       ",
"      <xjbbbbbbbbbbbbbbbbbbbbbjrrw)>%%%iv4{)**iv:{*%0w:)$#7jw2      ",
"     <skbbbbbbbbbbbbbbbbbbbbbbhrrw]>%%%ew}{)*~uu]{*$8y])$#0chw|     ",
"     smbbbbbbbbbbbbbbbbbbbbbbbdrrv])%%%ew[{)%_uu:{-$5y]>$#icbjx     ",
"     xgbbbbbbbbbbbbbbbbbbbbbbbcorv[)*%%0y:{)%}uu[{-$5x)-#&obbbw     ",
"     xgbbbbbbbbbbbbbbbbbbbbbbbbnrv4)*%$0y]{>$1tv[{-$4p)*#!nbbcw     ",
"     xgbbbbbbbbbbbbbbbbbbbbbbbbkru0)*%$8x))*$}xx])*$1e)%#1mbbcw     ",
"     xgbbbbbbbbbbbbbbbbbbbbbbbbhrte)-%$40)-%%-e1>-%%84>$#ajbbcw     ",
"     xgbbbbbbbbbbbbbbbbbbbbbbbbgrte)-%%[:>%%%%%%%%%%5]*$$egbbcw     ",
"     xgbbbbbbbbbbbbbbbbbbbbbbbbgru0)*%%***%%%%%%%%%%%%%$$pcbbcw     ",
"     xgbbbbbbbbbbbbcjmnnngbbbbbdrv4)%%%%%%%%%%%%%%%%%%%$&qcbbcw     ",
"     xgbbbbbbbbbbcove|''3wrbbbbdov[-%%%%%%%%%%%%%%%%%%%$!rbbbcw     ",
"     xgbbbbbbbbbdu8/%##++'sobbbgrw:*%%%%%%%%%%%%%%%%%%%$_nbbbcw     ",
"     xgbbbbbbbbdu1%%%$$$$#'smbbhts)-%%%%%%%%%%%%%%%%%%%$|nbbbcw     ",
"     xgbbbbbbbhty~))>-%%%%$/smbjv7)-%%%%%%%%%%%%%%%%%%%$1mbbbcw     ",
"     xgbbbbbbdrrv0[]{{>-%%%$!lrry04-%%%%%%%%%%%%%%%%%%%#1kbbbcw     ",
"     xgbbbbbbjtrruww0:{)-%%%%*lyyl:%%%%%%%%%%%%%%%%%%%%$5jbbbcw     ",
"     xgbbbbbbgrrrrrrtw0))-%%%$~xl{)-%%%%%%%%%%%%%%%%%%%$8gbbbcw     ",
"     xgbbbbbbbgmorrrrrvl]{>%%%$/l:>*%%%%%%%%%%**%%%%%%%%0dbbbcw     ",
"     xgbbbbbbbbbbgmrrrrwl{{-%%%%*-%%%%%%%%%%%*:)*%%%%%%%0cbbbcw     ",
"     xgbbbbbbbbbbbbjrrrry8))*%%%%%%%%%%%%%%%%>[)*%%%%---icbbbcw     ",
"     xgbbbbbbbbbbbbbmrrrtwl)>%%%%%%%%%%%%%%%%~}>*%%%->))qbbbbcw     ",
"     xgbbbbbbbbbbbbbcnrrrrw0)-%%%%%%%%%%%%%%%][>%%%%>){]rbbbbcw     ",
"     xgbbbbbbbbbbbbbbhrrrrrw}>>-%%%%%%%%%%%%>[]*%%%-){{[mbbbbcw     ",
"     xgbbbbbbbbbbbbbbbdnrrrts)))-%%%%%%%%%%>{4>%%%-){{{7gbbbbcw     ",
"     xgbbbbbbbbbbbbbbbbdrrrrw[{{>**%%%%%%%-{}/***-){{{]qbbbbbcw     ",
"     xgbbbbbbbbbbbbbbbbbjrrrue{{{)>>>-*%%%-]1**-)){{{)5mbbbbbcw     ",
"     xgbbbbbbbbbbbbbbbbbcorrrw:{{{{{))-%%%%-*%*){{{{):ucbbbbbcw     ",
"     xgbbbbbbbbbbbbbbbbbbkrrrws[{{{{{{-%%%%%%%-){{{>:pgbbbbbbcw     ",
"     xgbbbbbbbbbbbbbbbbbbgrrul]47[:]]]:-%%%%%%%->>~5xjbbbbbbbcw     ",
"     xgbbbbbbbbbbbbbbbbbbbmty:{{{:5885}*%%%%%%%~1awtgbbbbbbbbcw     ",
"     xgbbbbbbbbbbbbbbbbbbbmys){{{{>*%%%%%%%%$$*svogbbbbbbbbbbbw     ",
"     lobbbbbbbbbbbbbbbbbbhw95{{{{{>%%%%%%%%$##fucbbbbbbbbbbbbms     ",
"     ^smbbbbbbbbbbbbbbbbcv9(a{{{{)-%%%%%%%%$#5wcbbbbbbbbbbbbjx<     ",
"      (smbbbbbbbbbbbbbbcus((9[{{{>*%%%%%%%$+'ynbbbbbbbbbbbbhw<      ",
"       (skbbbbbbbbbbbbbty9^<<f}{)*%%%%%%%$#'pyydbbbbbbbbbbhw|       ",
"        (smbbbbbbbbbbboyy9(<(,3e7:*%$$$$$!8xlyobbbbbbbbbbjw|        ",
"         <xkbbbbbbbbbhyyy9(<(@.@6ls05115exs|3ydbbbbbbbbbhx3         ",
"          <xjbbbbbbbcvyyyl(<,..... <2222<,@@xobbbbbbbbbgw2          ",
"           <wjbbbbbbryyyyy3^@..............9ydbbbbbbbbgw2           ",
"            <whbbbbjwyyyyys(..............;yobbbbbbbbdw2            ",
"             2wgbbcowyyyyyyf@.............9ydbbbbbbbcv6             ",
"              3whbhrvyyyyyyyl^...........(yrbbbbbbbdu9              ",
"               3wgkrtyyyyyyyyyl92(;@@@@@<sygbbbbbbdv9               ",
"                2wrrrwyyyyyyyyyyyyyxxssxyyrbbbbbbdv6                ",
"                 6wrouyyyyyyyyyyyyyyyyyyywdbbbbbbu9                 ",
"                  9wrrwyyyyyyyyyyyyyyyyyymcccccctf;                 ",
"                   9xxxyyyyyyyyyyyyyyyyyxwwwwwwwf;                  ",
"                    ,,,3yyyyyyyyyyyyyyyf,,,,,,,,                    ",
"                        ayyyyyyyyyyyyys,                            ",
"                        ;ayyyyyyyyyyyf^                             ",
"                          2syyyyyyys2;                              ",
"                           ,3lxxsf3,                                "};
